<?xml version="1.0" encoding="UTF-8"?>
<svg id="_图层_2" data-name="图层_2" xmlns="http://www.w3.org/2000/svg" viewBox="0 0 373.41 120.01">
  <defs>
    <style>
      .cls-1 {
        opacity: .9;
      }

      .cls-2 {
        fill: none;
      }

      .cls-3 {
        fill: #07c160;
      }
    </style>
  </defs>
  <g id="_编辑图层" data-name="编辑图层">
    <g id="_全彩标志" data-name="全彩标志">
      <g class="cls-1">
        <path d="M130.93,57.14c10.88-8.42,19.05-18.81,24.29-31.4.25-.41.57-.65.98-.57l5.23,1.39c.57.16.9.41.65,1.06-6.05,14.07-14.15,25.02-26.09,34.76-.41.41-.9.41-1.23,0l-3.93-4.09c-.33-.41-.33-.74.08-1.14ZM161.35,51.33c.25-.41.57-.57.98-.49l5.56,1.31c.57.16.9.57.65,1.15-5.48,11.04-13.25,23.96-19.95,32.55-.33.33-.16.49.25.49l33.53-3.27c-3.52-5.4-7.2-10.71-10.39-14.47-.41-.49-.33-.82.25-1.06l4.58-2.53c.49-.25.82-.16,1.06.24,5.89,7.69,13.25,18.56,18.56,26.66.33.49.16.82-.33,1.23l-4.74,2.94c-.49.25-.9.08-1.15-.33l-3.84-6.38-41.46,3.68c-5.72.49-7.28-5.15-4.17-8.91,8.42-10.22,15.05-21.59,20.61-32.79ZM202.56,58.44l-3.52,4.25c-.33.41-.74.57-1.15.16-13.41-10.63-21.1-20.77-27.64-35.98-.25-.57,0-.82.57-.98l5.15-1.23c.49-.08.82.16.98.74,5.72,13,12.51,22.33,25.43,31.89.41.33.49.74.16,1.14Z"/>
        <path d="M215,90.09c13.33-10.47,16.27-20.44,17.34-36.15l.33-4.99c0-.57.41-.9.9-.9h5.64c.49,0,.82.41.74.9l-.41,5.48c-.16,2.62-.49,5.07-.82,7.44,4.01,3.76,8.18,8.42,12.76,14.39.25.41.25.82-.16,1.15l-3.35,4.17c-.33.41-.98.33-1.47-.41-3.19-4.42-6.38-8.18-9.32-11.37-2.54,9.24-7.28,16.76-16.68,24.94-.41.49-.82.49-1.31.08l-4.17-3.52c-.41-.41-.41-.9,0-1.23ZM215.65,49.04c13.25-5.07,23.22-13.57,30.83-22.81,2.94-3.68,8.26-3.68,11.45.33,7.77,9.4,17.58,16.93,30.26,21.75.82.33,1.06.74.74,1.23l-2.94,4.5c-.33.49-.74.65-1.23.41-14.31-6.05-25.02-14.31-32.3-24.12-.25-.25-.41-.25-.57,0-7.03,9.4-17.42,18.24-32.55,24.86-.49.16-.9,0-1.14-.41l-3.03-4.58c-.33-.49-.16-.98.49-1.15ZM241.09,90.83c15.37-10.06,19.3-21.18,20.44-36.47l.41-5.4c0-.57.41-.9.9-.9h5.31c.57,0,.98.41.9.9l-.41,5.72c-.08,1.14-.16,2.37-.33,3.43,2.29,12.67,7.93,23.14,21.18,32.38.49.41.41.9,0,1.23l-3.6,3.68c-.41.41-.82.41-1.23.08-10.06-7.28-15.95-14.88-19.22-24.12-3.19,9.4-9.08,16.93-19.22,24.37-.33.41-.82.33-1.15,0l-4.09-3.76c-.41-.33-.41-.74.08-1.14Z"/>
        <path d="M300.46,55.42c0-.57.33-.9.74-.9h71.47c.41,0,.74.33.74.9v4.25c0,.49-.33.82-.74.82h-49.07l-1.8,7.11c-.08.57.16.98.65.98h36.96c2.78,0,3.93,1.96,3.68,4.33-.41,4.17-.82,8.59-1.63,12.76-1.39,6.87-4.01,8.83-13,8.83h-15.87c-.49,0-.82-.25-.9-.74l-1.14-4.66c-.16-.57.08-.9.65-.9h15.54c5.89,0,7.11-.57,7.77-4.5.41-2.62.9-5.64,1.23-8.26.08-.57-.16-.9-.65-.9h-37.7c-2.86,0-4.42-2.04-3.68-4.99l2.53-9.08h-15.05c-.41,0-.74-.33-.74-.82v-4.25ZM311.83,43.15v-13.08c0-2.7,1.55-4.25,4.17-4.25h42.12c2.62,0,4.17,1.55,4.17,4.25v13.08c0,2.7-1.55,4.25-4.17,4.25h-42.12c-2.62,0-4.17-1.55-4.17-4.25ZM319.44,41.43h35.33c.57,0,.9-.33.9-.82v-8.01c0-.49-.33-.82-.9-.82h-35.33c-.49,0-.9.33-.9.82v8.01c0,.49.41.82.9.82Z"/>
      </g>
      <rect class="cls-2" width="373.41" height="120.01"/>
      <g>
        <path class="cls-3" d="M91.92,48.94c-8.93-11.52-24.34-14.84-38.17-9.65.43.14.86.29,1.3.43,20.6,7.06,31.69,29.38,24.77,49.84-1.87,5.47-4.75,10.23-8.35,14.12,4.47-1.3,8.93-3.02,12.82-6.05,15.7-11.95,18.87-34.14,7.63-48.68Z"/>
        <path class="cls-3" d="M40.36,37.27h0c.86-.58,1.73-1.3,2.59-1.73,0,0,.14,0,.14-.14.86-.58,1.73-1.01,2.74-1.58.14,0,.14-.14.29-.14,1.87-1.01,3.74-1.73,5.76-2.45.14,0,.29-.14.43-.14,1.01-.29,2.02-.58,2.88-.86.14,0,.29,0,.29-.14.86-.29,1.87-.43,2.88-.58.14,0,.29,0,.43-.14,1.01-.14,2.02-.29,3.02-.43h.58c1.01-.14,2.16-.14,3.17-.14,1.15,0,2.3,0,3.46.14h.58c1.15.14,2.16.29,3.31.43.14,0,.43,0,.58.14,1.01.14,2.16.43,3.17.72.14,0,.29.14.43.14,1.15.29,2.16.58,3.17,1.01-.58-1.01-.86-1.58-1.01-1.73-6.63-10.8-18-17.14-30.39-17.14-7.49,0-18.87,2.59-27.37,12.82-5.62,6.91-7.63,14.98-6.34,22.9.86,5.47,3.89,12.82,8.35,17.43,1.44-11.67,7.78-21.75,16.85-28.37Z"/>
        <path class="cls-3" d="M48.71,85.81c-3.17,0-6.19-.29-9.07-1.01-.29-.14-.72-.14-1.15-.14-.86,0-1.58.29-2.3.86l-9.51,6.19c-.29.14-.58.29-.86.29-.86,0-1.58-.58-1.58-1.44,0-.43.14-.72.14-1.15,0-.29,1.01-4.9,1.73-7.78.14-.29.14-.58.14-1.01,0-1.01-.58-1.87-1.3-2.45-10.23-6.63-17.14-17.57-18.58-28.66-2.59,4.03-3.89,7.2-5.19,11.81-4.9,17.28,5.91,38.03,23.62,43.79,20.31,6.63,39.75-.86,46.38-18.15.86-2.16,1.73-5.62,1.87-8.64-7.2,5.33-14.69,7.49-24.34,7.49Z"/>
      </g>
    </g>
  </g>
</svg>